P2
3 2
255
100 150 200
50  75  100
